<svg id="Layer_1" data-name="Layer 1" xmlns="http://www.w3.org/2000/svg" viewBox="0 0 100 100"
  width="20"
  heigth="20">
  <title>icon_clearall</title>
  <path
    d="M76.66,23.65a4.58,4.58,0,0,0-6.51,6.45,28.48,28.48,0,0,1,1.44,38.22,28,28,0,0,1-7.09,6l.15-10.71L35.93,79.66,64.2,96.5l.16-11.89A37.28,37.28,0,0,0,78.58,74.25,37.7,37.7,0,0,0,76.66,23.65Z"></path>
  <path
    d="M64.07,20.34,35.81,3.5l-.16,11.89a37.46,37.46,0,0,0-12.32,61,4.58,4.58,0,1,0,6.52-6.44,28.48,28.48,0,0,1-1.44-38.22,28,28,0,0,1,7.1-6L35.36,36.4Z"></path>
</svg>